<svg width="256" height="256" viewBox="0 0 256 256" fill="none" xmlns="http://www.w3.org/2000/svg">
  <rect width="256" height="256" rx="48" fill="#020617"/>
  <rect x="18" y="18" width="220" height="220" rx="34" fill="#0F172A" stroke="#10B981" stroke-width="6"/>
  <path d="M58 94L88 54L118 94L152 54L186 94V142H58V94Z" fill="#F59E0B" stroke="#FDE68A" stroke-width="6" stroke-linejoin="round"/>
  <rect x="70" y="104" width="104" height="26" fill="#111827" stroke="#020617" stroke-width="4"/>
  <rect x="78" y="112" width="18" height="10" fill="#10B981"/>
  <rect x="108" y="112" width="18" height="10" fill="#38BDF8"/>
  <rect x="138" y="112" width="18" height="10" fill="#EF4444"/>
  <rect x="58" y="150" width="140" height="44" rx="10" fill="#10B981"/>
  <rect x="70" y="162" width="22" height="20" fill="#020617"/>
  <rect x="104" y="162" width="22" height="20" fill="#020617"/>
  <rect x="138" y="162" width="48" height="8" fill="#020617"/>
  <rect x="138" y="176" width="34" height="8" fill="#020617"/>
  <path d="M196 112H220V190C220 202.15 210.15 212 198 212H176V188H194C195.105 188 196 187.105 196 186V112Z" fill="#38BDF8"/>
  <rect x="42" y="204" width="172" height="10" fill="#F59E0B"/>
</svg>
